<?xml version="1.0" standalone="no"?>
<!DOCTYPE svg PUBLIC "-//W3C//DTD SVG 20010904//EN"
 "http://www.w3.org/TR/2001/REC-SVG-20010904/DTD/svg10.dtd">
<svg version="1.0" xmlns="http://www.w3.org/2000/svg"
 width="72.000000pt" height="72.000000pt" viewBox="0 0 72.000000 72.000000"
 preserveAspectRatio="xMidYMid meet">

<g transform="translate(0.000000,72.000000) scale(0.100000,-0.100000)"
fill="#000000" stroke="none">
<path d="M103 484 c-21 -21 -24 -32 -19 -62 11 -70 83 -96 131 -47 33 32 33
78 0 110 -33 33 -78 33 -112 -1z"/>
<path d="M455 475 c-16 -15 -25 -36 -25 -55 0 -19 9 -40 25 -55 15 -16 36 -25
55 -25 70 0 105 86 55 135 -15 16 -36 25 -55 25 -19 0 -40 -9 -55 -25z"/>
<path d="M285 425 c-50 -49 -15 -135 55 -135 19 0 40 9 55 25 16 15 25 36 25
55 0 19 -9 40 -25 55 -15 16 -36 25 -55 25 -19 0 -40 -9 -55 -25z"/>
<path d="M76 294 c-54 -19 -76 -42 -76 -76 l0 -28 90 0 90 0 0 -30 0 -30 160
0 160 0 0 25 c0 25 1 25 85 25 l85 0 0 29 c0 80 -178 120 -276 62 -42 -25 -71
-27 -95 -5 -46 41 -151 55 -223 28z"/>
</g>
</svg>
