<svg height="453pt" viewBox="0 -16 453.93403 453" width="453pt" xmlns="http://www.w3.org/2000/svg"><path d="m385.078125 182.308594 12.28125 12.285156 56.574219-56.566406-12.296875-12.289063c-1.503907-1.492187-3.535157-2.335937-5.65625-2.34375h-20.6875c-6.367188.019531-12.476563-2.511719-16.96875-7.023437l-6.628907-6.632813c-9.355468-9.382812-9.355468-24.5625 0-33.941406l-50.136718-50.136719c-20.949219-13.847656-45.304688-21.660156-70.402344-22.585937l-70.445312-2.605469 68.222656 30.460938c13.183594 6.5625 25.226562 15.207031 35.65625 25.601562l2.265625 2.265625c3.121093 3.121094 3.121093 8.1875 0 11.308594l-28.289063 28.289062 45.253906 45.257813 11.3125-11.289063c9.375-9.371093 24.566407-9.371093 33.9375 0l6.625 6.625c4.515626 4.488281 7.046876 10.597657 7.03125 16.964844v20.691406c.007813 2.121094.851563 4.15625 2.351563 5.664063zm0 0"/><path d="m306.847656 149.339844-33.945312-33.945313-265.871094 265.871094c-9.375 9.375-9.375 24.570313 0 33.945313 9.371094 9.375 24.570312 9.375 33.941406 0zm0 0"/></svg>