<?xml version="1.0" standalone="no"?>
<!DOCTYPE svg PUBLIC "-//W3C//DTD SVG 20010904//EN"
 "http://www.w3.org/TR/2001/REC-SVG-20010904/DTD/svg10.dtd">
<svg version="1.0" xmlns="http://www.w3.org/2000/svg"
 width="72.000000pt" height="72.000000pt" viewBox="0 0 72.000000 72.000000"
 preserveAspectRatio="xMidYMid meet">

<g transform="translate(0.000000,72.000000) scale(0.100000,-0.100000)"
fill="#000000" stroke="none">
<path d="M170 335 l0 -155 125 0 125 0 0 32 c0 30 0 31 20 13 20 -18 20 -17
20 13 l0 32 55 0 55 0 0 60 0 60 -55 0 c-53 0 -55 1 -55 27 0 25 0 26 -20 8
-20 -18 -20 -17 -20 23 l0 42 -125 0 -125 0 0 -155z m220 82 c0 -34 -6 -49
-25 -67 l-25 -24 25 -26 c16 -17 25 -38 25 -58 l0 -32 -95 0 -95 0 0 125 0
125 95 0 95 0 0 -43z"/>
</g>
</svg>
